# xmcd
#
# Track frame offsets:
#	150
#	11043
#	31947
#	44607
#	59379
#	81111
#	103023
#	124347
#	143895
#	152055
#
# Disc length: 2104 seconds
#
# Revision: 0
# Processed by: cddbd v1.5PL3 Copyright (c) Steve Scherf et al.
# Submitted via: dBpowerAMP V4.0
#
DISCID=8508360a
DTITLE=Robert Couch - Winter Moon
DYEAR=2002
DGENRE=Undefined
TTITLE0=Winter Moon
TTITLE1=God Looks on the Heart
TTITLE2=Like a Norman Rockwell Painting
TTITLE3=Lost n' Found
TTITLE4=Chances
TTITLE5=Broken Bread
TTITLE6=Rule # One
TTITLE7=Life's Shadows
TTITLE8=Give Praise
TTITLE9=Hallelu-yah Adoniyah
EXTD=
EXTT0=
EXTT1=
EXTT2=
EXTT3=
EXTT4=
EXTT5=
EXTT6=
EXTT7=
EXTT8=
EXTT9=
PLAYORDER=
